<?xml version="1.0" encoding="UTF-8" standalone="no"?>
<svg
   xmlns:dc="http://purl.org/dc/elements/1.1/"
   xmlns:cc="http://creativecommons.org/ns#"
   xmlns:rdf="http://www.w3.org/1999/02/22-rdf-syntax-ns#"
   xmlns:svg="http://www.w3.org/2000/svg"
   xmlns="http://www.w3.org/2000/svg"
   xmlns:xlink="http://www.w3.org/1999/xlink"
   xmlns:sodipodi="http://sodipodi.sourceforge.net/DTD/sodipodi-0.dtd"
   xmlns:inkscape="http://www.inkscape.org/namespaces/inkscape"
   width="27.47842mm"
   height="26.925335mm"
   viewBox="0 0 27.47842 26.925335"
   version="1.1"
   id="svg3066"
   inkscape:export-filename="C:\Users\iqbal\bitmap.png"
   inkscape:export-xdpi="96"
   inkscape:export-ydpi="96"
   inkscape:version="1.0.2-2 (e86c870879, 2021-01-15)"
   sodipodi:docname="disegno-1.svg">
  <defs
     id="defs3060">
    <linearGradient
       inkscape:collect="always"
       xlink:href="#SvgjsLinearGradient12805"
       id="linearGradient2867"
       x1="-86.340187"
       y1="31.36166"
       x2="-85.83345"
       y2="124.99462"
       gradientUnits="userSpaceOnUse"
       gradientTransform="matrix(0.26458333,0,0,0.26458333,140.19742,185.34978)" />
    <linearGradient
       id="SvgjsLinearGradient12805">
      <stop
         id="SvgjsStop12806"
         stop-color="#ef4136"
         offset="0" />
      <stop
         id="SvgjsStop12807"
         stop-color="#fbb040"
         offset="1" />
    </linearGradient>
  </defs>
  <sodipodi:namedview
     id="base"
     pagecolor="#ffffff"
     bordercolor="#666666"
     borderopacity="1.0"
     inkscape:pageopacity="0.0"
     inkscape:pageshadow="2"
     inkscape:zoom="1.979899"
     inkscape:cx="-80.751926"
     inkscape:cy="7.6580593"
     inkscape:document-units="mm"
     inkscape:current-layer="layer1"
     inkscape:document-rotation="0"
     showgrid="false"
     inkscape:window-width="1920"
     inkscape:window-height="991"
     inkscape:window-x="-9"
     inkscape:window-y="-9"
     inkscape:window-maximized="1" />
  <metadata
     id="metadata3063">
    <rdf:RDF>
      <cc:Work
         rdf:about="">
        <dc:format>image/svg+xml</dc:format>
        <dc:type
           rdf:resource="http://purl.org/dc/dcmitype/StillImage" />
        <dc:title></dc:title>
      </cc:Work>
    </rdf:RDF>
  </metadata>
  <g
     inkscape:label="Livello 1"
     inkscape:groupmode="layer"
     id="layer1"
     transform="translate(-103.61404,-193.64755)">
    <path
       style="fill:#ef4336;fill-opacity:1;stroke-width:0.0926452;stroke-linecap:round;stroke-linejoin:round"
       d="m 130.75653,220.52794 c -0.0837,-0.0242 -0.71802,-0.22129 -1.40954,-0.43809 -3.74643,-1.17456 -6.89602,-1.68486 -10.94926,-1.774 -5.0975,-0.11211 -8.5351,0.31559 -13.12029,1.6324 -1.1536,0.33129 -1.59667,0.44249 -1.54542,0.38786 0.0383,-0.0408 0.95439,-0.44443 1.61251,-0.71047 5.28674,-2.13719 10.91456,-2.81912 16.3663,-1.98312 2.57395,0.3947 4.55616,0.95167 7.43711,2.08972 1.36961,0.54103 2.27024,0.98653 1.60859,0.7957 z"
       id="path2830" />
    <path
       id="path2841"
       style="fill:url(#linearGradient2867);fill-opacity:1;stroke-width:0.321276"
       d="m 117.35325,193.64755 c -3.06472,4.40001 -3.45993,5.78065 -3.47421,11.17244 -3.11296,-3.24279 -4.11113,-4.28742 -8.50852,-5.18728 -0.19067,5.30353 -0.13797,6.2578 3.21169,10.37456 -1.65597,0.88864 -3.31228,1.77685 -4.96817,2.66599 7.72086,7.14031 12.87196,2.57376 13.73921,1.69344 0.86725,0.88032 6.01835,5.44687 13.73921,-1.69344 -1.65589,-0.88914 -3.31219,-1.77735 -4.96817,-2.66599 3.34967,-4.11676 3.40237,-5.07103 3.21169,-10.37456 -4.39739,0.89986 -5.39555,1.94449 -8.50852,5.18728 -0.0143,-5.39179 -0.40949,-6.77243 -3.47421,-11.17244 z m 0,3.69486 c 0.70103,0.89883 2.4125,3.51469 3.14193,8.50129 0,0 2.80798,-2.91151 6.16293,-3.18688 0,0 2.99062,1.55674 -1.93528,7.37836 0,0 2.62122,1.31997 3.04891,2.79466 0,0 -1.99682,2.21179 -4.68292,2.23759 -2.17551,-0.0191 -4.42372,-1.05958 -5.73557,-3.01997 -1.31185,1.96039 -3.56006,3.00088 -5.73556,3.01997 -2.6861,-0.0258 -4.68292,-2.23759 -4.68292,-2.23759 0.42769,-1.47469 3.04891,-2.79466 3.04891,-2.79466 -4.92591,-5.82162 -1.93529,-7.37836 -1.93529,-7.37836 3.35495,0.27537 6.16293,3.18688 6.16293,3.18688 0.72943,-4.9866 2.4409,-7.60246 3.14193,-8.50129 z" />
  </g>
</svg>
