<?xml version="1.0" encoding="UTF-8" standalone="no"?>
<svg
   xmlns:dc="http://purl.org/dc/elements/1.1/"
   xmlns:cc="http://creativecommons.org/ns#"
   xmlns:rdf="http://www.w3.org/1999/02/22-rdf-syntax-ns#"
   xmlns:svg="http://www.w3.org/2000/svg"
   xmlns="http://www.w3.org/2000/svg"
   xmlns:xlink="http://www.w3.org/1999/xlink"
   xmlns:sodipodi="http://sodipodi.sourceforge.net/DTD/sodipodi-0.dtd"
   xmlns:inkscape="http://www.inkscape.org/namespaces/inkscape"
   width="96.22113mm"
   height="33.593166mm"
   viewBox="0 0 96.22113 33.593166"
   version="1.1"
   id="svg3017"
   inkscape:export-filename="C:\Users\iqbal\bitmap_2.png"
   inkscape:export-xdpi="96"
   inkscape:export-ydpi="96"
   inkscape:version="0.92.4 (5da689c313, 2019-01-14)"
   sodipodi:docname="logonero.svg">
  <defs
     id="defs3011">
    <linearGradient
       inkscape:collect="always"
       xlink:href="#SvgjsLinearGradient12805"
       id="linearGradient2973"
       gradientUnits="userSpaceOnUse"
       gradientTransform="matrix(-0.99999995,0,0,0.99999995,-21.8064,-27.872595)"
       x1="-86.465187"
       y1="37.23666"
       x2="-85.83345"
       y2="124.99462" />
    <linearGradient
       id="SvgjsLinearGradient12805">
      <stop
         id="SvgjsStop12806"
         stop-color="#ef4136"
         offset="0" />
      <stop
         id="SvgjsStop12807"
         stop-color="#fbb040"
         offset="1" />
    </linearGradient>
  </defs>
  <sodipodi:namedview
     id="base"
     pagecolor="#ffffff"
     bordercolor="#666666"
     borderopacity="1.0"
     inkscape:pageopacity="0.0"
     inkscape:pageshadow="2"
     inkscape:zoom="3.02"
     inkscape:cx="175.25895"
     inkscape:cy="43.401949"
     inkscape:document-units="mm"
     inkscape:current-layer="layer1"
     inkscape:document-rotation="0"
     showgrid="false"
     inkscape:window-width="1920"
     inkscape:window-height="1017"
     inkscape:window-x="-8"
     inkscape:window-y="-8"
     inkscape:window-maximized="1"
     showguides="true" />
  <metadata
     id="metadata3014">
    <rdf:RDF>
      <cc:Work
         rdf:about="">
        <dc:format>image/svg+xml</dc:format>
        <dc:type
           rdf:resource="http://purl.org/dc/dcmitype/StillImage" />
        <dc:title />
      </cc:Work>
    </rdf:RDF>
  </metadata>
  <g
     inkscape:label="Livello 1"
     inkscape:groupmode="layer"
     id="layer1"
     transform="translate(-31.268486,-73.807785)">
    <g
       id="SvgjsG12801-3"
       featurekey="UxezYZ-0"
       transform="matrix(0.0893487,0,0,0.0893487,70.604733,100.75005)"
       style="fill:#e3e2db;fill-opacity:1">
      <path
         d="M 12.52,20 11.08,16.7 H 3.6 L 2.16,20 H 0.4 L 6.64,6 h 1.38 l 6.26,14 z m -8.3,-4.7 h 6.24 L 7.34,8.18 Z M 35.384,6 h 1.66 v 8.92 c 0,3.44 -2.24,5.38 -5.08,5.38 -2.84,0 -5.08,-1.94 -5.08,-5.38 V 6 h 1.66 v 8.92 c 0,2.62 1.56,3.8 3.42,3.8 1.86,0 3.42,-1.18 3.42,-3.8 z m 24.104,0 v 1.56 h -3.88 V 20 h -1.66 V 7.56 h -3.9 V 6 Z M 79.352,5.8 c 3.64,0 7.16,2.96 7.16,7.2 0,4.24 -3.52,7.2 -7.16,7.2 -3.66,0 -7.16,-2.96 -7.16,-7.2 0,-4.24 3.5,-7.2 7.16,-7.2 z m 0,12.82 c 2.74,0 5.44,-2.32 5.44,-5.62 0,-3.3 -2.7,-5.62 -5.44,-5.62 -2.76,0 -5.44,2.32 -5.44,5.62 0,3.3 2.68,5.62 5.44,5.62 z M 114.196,6 v 14 h -1.7 V 9.72 L 107.576,20 h -1.36 l -4.9,-10.26 V 20 h -1.7 V 6 h 1.64 l 5.66,11.72 5.64,-11.72 z m 24.724,14 -1.44,-3.3 H 130 l -1.44,3.3 h -1.76 l 6.24,-14 h 1.38 l 6.26,14 z m -8.3,-4.7 h 6.24 L 133.74,8.18 Z M 162.324,6 v 1.56 h -3.88 V 20 h -1.66 V 7.56 h -3.9 V 6 Z m 14.664,12.44 h 6.66 V 20 h -7.06 -1.26 V 6 h 1.66 6.48 v 1.56 h -6.48 v 4.64 h 5.04 v 1.52 h -5.04 z M 200.912,6 c 4.08,0 7.08,3.1 7.08,7 0,3.9 -3,7 -7.08,7 h -4.16 V 6 Z m -0.02,12.42 c 3.34,0 5.4,-2.42 5.4,-5.42 0,-3 -2.06,-5.42 -5.4,-5.42 h -2.48 V 18.42 Z M 247.04,6 v 1.56 h -3.88 V 20 H 241.5 V 7.56 h -3.9 V 6 Z m 14.664,12.44 h 6.66 V 20 h -7.06 -1.26 V 6 h 1.66 6.48 v 1.56 h -6.48 v 4.64 h 5.04 v 1.52 h -5.04 z m 31.324,0.06 c -1.28,1.1 -2.9,1.7 -4.7,1.7 -3.64,0 -7.16,-2.96 -7.16,-7.2 0,-4.24 3.52,-7.2 7.16,-7.2 1.78,0 3.38,0.6 4.64,1.66 l -1.02,1.16 c -0.98,-0.78 -2.24,-1.24 -3.5,-1.24 -2.86,0 -5.56,2.32 -5.56,5.62 0,3.3 2.7,5.62 5.56,5.62 1.28,0 2.56,-0.48 3.54,-1.28 z M 314.712,6 h 1.66 v 14 h -1.66 v -6.12 h -7.12 V 20 h -1.66 V 6 h 1.66 v 6.32 h 7.12 z m 24.824,0 h 1.66 v 14 h -1.28 L 331.436,9.04 V 20 h -1.66 V 6 h 1.28 l 8.48,10.98 z M 361.46,5.8 c 3.64,0 7.16,2.96 7.16,7.2 0,4.24 -3.52,7.2 -7.16,7.2 -3.66,0 -7.16,-2.96 -7.16,-7.2 0,-4.24 3.5,-7.2 7.16,-7.2 z m 0,12.82 c 2.74,0 5.44,-2.32 5.44,-5.62 0,-3.3 -2.7,-5.62 -5.44,-5.62 -2.76,0 -5.44,2.32 -5.44,5.62 0,3.3 2.68,5.62 5.44,5.62 z m 21.924,-0.18 h 6.28 V 20 h -7.94 V 6 h 1.66 z M 409.528,5.8 c 3.64,0 7.16,2.96 7.16,7.2 0,4.24 -3.52,7.2 -7.16,7.2 -3.66,0 -7.16,-2.96 -7.16,-7.2 0,-4.24 3.5,-7.2 7.16,-7.2 z m 0,12.82 c 2.74,0 5.44,-2.32 5.44,-5.62 0,-3.3 -2.7,-5.62 -5.44,-5.62 -2.76,0 -5.44,2.32 -5.44,5.62 0,3.3 2.68,5.62 5.44,5.62 z m 33.524,-5.66 c 0.3,4.48 -2.76,7.24 -6.4,7.24 -3.74,0 -7.16,-2.96 -7.16,-7.2 0,-4.24 3.5,-7.2 7.16,-7.2 1.76,0 3.36,0.6 4.62,1.66 l -1.02,1.16 c -0.98,-0.78 -2.24,-1.24 -3.5,-1.24 -2.86,0 -5.54,2.32 -5.54,5.62 0,3.3 2.6,5.62 5.44,5.62 2.48,0 4.46,-1.34 4.84,-4.22 h -4.08 V 12.96 Z M 466.796,6 l -5.22,7.54 V 20 h -1.66 V 13.54 L 454.696,6 h 1.9 l 4.14,6.02 4.16,-6.02 z"
         id="path20-9"
         style="fill:#e3e2db;fill-opacity:1"
         inkscape:connector-curvature="0" />
    </g>
    <g
       id="g7694"
       style="fill-opacity:1;fill:#e3e2db">
      <path
         inkscape:connector-curvature="0"
         sodipodi:nodetypes="ccccccccccc"
         style="fill:#e3e2db;fill-opacity:1;stroke-width:0.84921199"
         id="path30-9"
         d="m 77.565314,97.073358 h 2.988633 l -5.77809,-15.806737 h -3.021872 l 3.353924,9.444342 z m -12.220657,0 h 2.922241 l 3.453559,-8.416941 -1.427925,-3.77765 z" />
      <path
         sodipodi:nodetypes="ccccscccscccccccscsccscscsccscsccccc"
         inkscape:connector-curvature="0"
         id="path36-9"
         d="m 82.596617,81.200615 0.001,15.850195 h 7.096726 v 0.0057 h 6.375836 c 0.86337,0 1.660488,-0.09945 2.391069,-0.29869 0.75271,-0.221393 1.361405,-0.498372 1.826242,-0.830441 0.46484,-0.332068 0.86314,-0.785543 1.19527,-1.361157 0.26566,-0.531318 0.39843,-1.151443 0.39843,-1.859835 0,-0.553463 -0.0661,-1.02929 -0.19895,-1.427819 -0.15497,-0.420635 -0.37625,-0.785603 -0.66405,-1.095541 -0.19925,-0.221395 -0.5205,-0.475966 -0.96325,-0.763777 -0.487041,-0.243515 -0.918664,-0.431995 -1.295002,-0.564824 0.265661,-0.154975 0.553604,-0.331995 0.863513,-0.531233 0.30992,-0.26566 0.542129,-0.520266 0.697109,-0.763778 0.19924,-0.265658 0.36533,-0.586924 0.49816,-0.963249 0.13283,-0.398486 0.19947,-0.830138 0.19947,-1.295011 0,-1.23971 -0.46497,-2.224791 -1.394739,-2.955375 -0.92978,-0.73058 -2.191866,-1.095541 -3.785814,-1.095541 h -6.143294 v 2.457215 h 5.81153 c 0.841243,0 1.527469,0.177012 2.058789,0.531233 0.464899,0.354224 0.697114,0.863369 0.697114,1.527556 0,0.75271 -0.265531,1.295153 -0.796849,1.62729 -0.55346,0.354221 -1.272966,0.531234 -2.158526,0.531234 h -5.612058 v 2.324406 h 6.209955 c 1.062641,0 1.870642,0.187974 2.424142,0.564307 0.53132,0.398489 0.796851,0.930114 0.796851,1.594218 0,0.708412 -0.265531,1.25095 -0.796851,1.627291 -0.553461,0.376343 -1.295336,0.564306 -2.225188,0.564306 H 85.328753 l -0.0088,-13.398665 z"
         style="fill:#e3e2db;fill-opacity:1;stroke-width:0.85278273" />
      <path
         inkscape:connector-curvature="0"
         sodipodi:nodetypes="ccccccccccc"
         style="fill:#e3e2db;fill-opacity:1;stroke-width:0.84921199"
         id="path42-7"
         d="m 114.61954,97.073358 h 2.98863 l -5.7781,-15.806737 h -3.02186 l 3.35392,9.444342 z m -12.22067,0 h 2.92224 l 3.45356,-8.416941 -1.42792,-3.77765 z" />
    </g>
    <path
       inkscape:connector-curvature="0"
       style="fill:#ef4336;fill-opacity:1;stroke-width:0.0926452;stroke-linecap:round;stroke-linejoin:round"
       d="m 61.814883,102.0428 c -0.08372,-0.0242 -0.718013,-0.22129 -1.409533,-0.43809 -3.74643,-1.17456 -6.896025,-1.684854 -10.949267,-1.774 -5.097492,-0.11211 -8.535093,0.31559 -13.120291,1.6324 -1.153593,0.33129 -1.596662,0.44249 -1.545412,0.38786 0.03826,-0.0408 0.954386,-0.44443 1.612506,-0.71048 5.286737,-2.137177 10.914559,-2.819104 16.366304,-1.983108 2.573946,0.394703 4.556154,0.951668 7.437108,2.089718 1.369608,0.54103 2.270236,0.98653 1.608585,0.7957 z"
       id="path2830-8" />
    <path
       style="fill:url(#linearGradient2973);fill-opacity:1;stroke-width:1.21427155"
       d="M 64.761719 9.6054688 C 57.146836 21.043729 51.973463 25.489019 51.919922 45.716797 C 40.154374 33.460549 30.881449 37.762376 22.261719 31.861328 C 27.04072 38.656167 19.240239 49.762858 31.900391 65.322266 C 25.391591 68.243368 24.486674 69.489839 17.214844 74.857422 C 42.68459 101.90091 60.975377 85.845268 64.792969 82.050781 C 68.61056 85.845268 86.901351 101.9009 112.37109 74.857422 C 105.09926 69.489843 104.19435 68.243368 97.685547 65.322266 C 110.34569 49.762858 102.54522 38.656163 107.32422 31.861328 C 98.7045 37.762376 89.431553 33.460549 77.666016 45.716797 C 77.612498 25.489019 72.439101 21.043733 64.824219 9.6054688 L 64.814453 9.6054688 C 64.813693 9.6304136 64.805443 9.6547426 64.804688 9.6796875 C 64.792256 9.9848664 64.79794 10.263004 64.792969 10.541016 C 64.78798 10.262995 64.7917 9.984878 64.779297 9.6796875 C 64.778295 9.6547426 64.770287 9.6302247 64.769531 9.6054688 L 64.761719 9.6054688 z M 64.792969 15.070312 C 64.796128 15.575512 64.804466 16.080745 64.802734 16.585938 C 64.800411 17.099669 64.79805 17.359903 64.792969 17.677734 C 64.787892 17.359899 64.783451 17.099678 64.78125 16.585938 C 64.779418 16.08074 64.789864 15.575516 64.792969 15.070312 z M 64.792969 20.84375 C 67.679028 24.544666 75.375777 34.640303 75.867188 49.761719 C 75.867199 49.761719 79.31658 47.660183 83.650391 45.703125 C 87.527143 43.952455 92.374317 42.414499 97.660156 42.791016 C 97.646172 42.772496 101.87973 58.334829 91.453125 65.175781 C 91.453125 65.175781 101.47874 71.558493 104.24609 75.234375 C 104.2461 75.234375 97.540842 84.287254 85.607422 86.041016 C 78.049334 86.384612 69.277781 81.475855 64.863281 74.101562 C 64.662551 74.380076 64.464031 74.658102 64.25 74.929688 C 64.225433 74.96068 64.200386 74.990795 64.175781 75.021484 C 64.175781 75.022132 64.175782 75.022789 64.175781 75.023438 C 64.114862 75.098574 64.053668 75.173491 63.992188 75.248047 C 59.388938 81.979196 51.135944 86.366509 43.976562 86.041016 C 32.043143 84.287254 25.337879 75.234375 25.337891 75.234375 C 28.105242 71.558493 38.617188 65.550781 38.617188 65.550781 C 28.19059 58.709829 31.937718 42.772477 31.923828 42.791016 C 37.209667 42.414499 42.056845 43.952455 45.933594 45.703125 C 50.267404 47.660183 53.716786 49.761719 53.716797 49.761719 C 54.208242 34.639249 61.907381 24.54403 64.792969 20.84375 z "
       transform="matrix(0.26458333,0,0,0.26458333,31.268486,73.807785)"
       id="path2841-4" />
  </g>
</svg>
